# xmcd
#
# Track frame offsets:
#	150
#	11061
#	25109
#	36894
#	49061
#	61843
#	75683
#	86077
#	100205
#	113954
#	125586
#	138487
#	152675
#	165439
#	178314
#	190439
#	202014
#	213508
#	226508
#	239974
#	252506
#	265736
#	277774
#
# Disc length: 4394 seconds
#
# Revision: 0
# Processed by: cddbd v1.5.2PL0 Copyright (c) Steve Scherf et al.
# Submitted via: EasyCDDAExtractor 4.6.9.1
#
DISCID=47112817
DTITLE=Motown madness!  - Vol.2
DYEAR=1900
DGENRE=Funk
TTITLE0=Martha and The Vandellas - In my lonely room
TTITLE1=The Supremes - When the lovelight starts shining through his eyes
TTITLE2=Martha and The Vandellas - Live wire
TTITLE3=The Supremes - Come see about me
TTITLE4=Mary Wells - My guy
TTITLE5=Martha and The Vandellas - My baby loves me
TTITLE6=Marvin Gaye and Tammi Terrell - Ain't nothing like the real thing
TTITLE7=Diana Ross and The Supremes and The Temptations - I'm gonna make you lov
TTITLE7=e me
TTITLE8=Jimmy Ruffin - What becomes of the brokenhearted
TTITLE9=The Supremes - Where did our love go
TTITLE10=The Supremes - You can't hurry love
TTITLE11=The Spinnes - It's a shame
TTITLE12=Smokey Robinson and The Miracles - More Love
TTITLE13=Stevie Wonder - For once in my life
TTITLE14=The Temptations - Get ready
TTITLE15=The Temptations - Ain't too proud to beg
TTITLE16=The Velvelettes - He was really saying' somethin'
TTITLE17=The Supremes - Stop! in the name of love
TTITLE18=The Jackson 5 - ABC
TTITLE19=The Miracles - Mickey's monkey
TTITLE20=The Supremes - Love os like an itching in my heart
TTITLE21=Martha and The Vandellas - Dancing in the street
TTITLE22=Four tops - Still water (Love)
EXTD=
EXTT0=
EXTT1=
EXTT2=
EXTT3=
EXTT4=
EXTT5=
EXTT6=
EXTT7=
EXTT8=
EXTT9=
EXTT10=
EXTT11=
EXTT12=
EXTT13=
EXTT14=
EXTT15=
EXTT16=
EXTT17=
EXTT18=
EXTT19=
EXTT20=
EXTT21=
EXTT22=
PLAYORDER=
